<svg width="79" height="79" viewBox="0 0 79 79" fill="none" xmlns="http://www.w3.org/2000/svg">
<mask id="mask0_1280_2" style="mask-type:luminance" maskUnits="userSpaceOnUse" x="0" y="0" width="79" height="79">
<path d="M79 0H0V79H79V0Z" fill="white"/>
</mask>
<g mask="url(#mask0_1280_2)">
<path d="M37.2442 39.5398L35.3485 40.4885C35.3485 40.4885 31.3215 32.0378 26.346 40.4885L24.528 39.5398C24.528 39.5398 30.6896 28.0885 37.2442 39.5398Z" fill="#E1E8FF"/>
<path d="M55.6809 39.5398L53.7852 40.4885C53.7852 40.4885 49.7568 32.0378 44.7815 40.4885L42.9658 39.5398C42.9658 39.5398 49.1262 28.0885 55.6809 39.5398Z" fill="#E1E8FF"/>
<path d="M39.4993 0C17.6842 0 0 17.6853 0 39.5007C0 61.3159 17.6842 79 39.4993 79C61.3149 79 79 61.3159 79 39.5007C79 17.6853 61.3149 0 39.4993 0ZM65.3616 55.1005C38.9826 52.4142 15.2879 59.8965 15.2879 59.8965C6.59966 39.3407 23.5818 27.6144 23.5818 27.6144L15.9198 19.8746L19.2372 16.6164L27.6877 25.2454C40.3252 18.7695 51.5399 25.1666 51.5399 25.1666L60.6226 16.6164L63.5446 19.9534L55.4893 27.5355C70.417 39.6198 65.3616 55.1005 65.3616 55.1005Z" fill="#E1E8FF"/>
</g>
</svg>
